<?xml version="1.0" encoding="UTF-8"?> <svg xmlns="http://www.w3.org/2000/svg" xmlns:xlink="http://www.w3.org/1999/xlink" width="97.647" height="98.944" viewBox="0 0 97.647 98.944"><defs><linearGradient id="linear-gradient" x1="0.504" y1="0.938" x2="0.628" y2="-0.323" gradientUnits="objectBoundingBox"><stop offset="0" stop-color="#f4acb7"></stop><stop offset="1" stop-color="#3772ff"></stop></linearGradient></defs><g id="Group_1904" data-name="Group 1904" transform="translate(0 0)"><path id="Path_21555" data-name="Path 21555" d="M6.34,23.262,14.947,8.63,0,0Z" transform="matrix(-0.966, -0.259, 0.259, -0.966, 51.538, 86.324)" fill="#496ddb"></path><path id="Path_21554" data-name="Path 21554" d="M6.34,0l8.607,14.632L0,23.262Z" transform="matrix(0.259, 0.966, -0.966, 0.259, 33.317, 39.61)" fill="#496ddb"></path><circle id="Ellipse_11066" data-name="Ellipse 11066" cx="27.702" cy="27.702" r="27.702" transform="translate(58.471 0) rotate(45)" fill="#0b2545"></circle><path id="Path_21552" data-name="Path 21552" d="M26.235,47.2c1.276-4.629,3.731-10,3.731-15.732C29.966,14.087,23.258,0,14.983,0S0,14.087,0,31.465C0,37.2,2.455,42.568,3.731,47.2Z" transform="translate(51.626 24.833) rotate(45)" fill="#c7dbe6"></path><path id="Path_21553" data-name="Path 21553" d="M7.744,0A17.7,17.7,0,0,0,0,1.8C1.706,9.022,4.766,13.836,8.258,13.836c3.415,0,6.415-4.606,8.141-11.56A17.823,17.823,0,0,0,7.744,0Z" transform="translate(53.516 55.723) rotate(-135)" fill="#496ddb"></path><path id="Path_21549" data-name="Path 21549" d="M7.689,0c-17.3,0,0,30.661,0,30.661S24.985,0,7.689,0Z" transform="translate(21.681 66.391) rotate(45)" fill="url(#linear-gradient)"></path><path id="Path_21550" data-name="Path 21550" d="M3.632.01c-8.772-.516,1.1,20.028,1.1,20.028S12.406.525,3.632.01Z" transform="matrix(0.259, 0.966, -0.966, 0.259, 23.457, 68.167)" fill="url(#linear-gradient)"></path><path id="Path_21551" data-name="Path 21551" d="M4.206.01C-4.566.526,3.1,20.037,3.1,20.037S12.981-.506,4.206.01Z" transform="matrix(0.966, 0.259, -0.259, 0.966, 23.23, 73.485)" fill="url(#linear-gradient)"></path></g></svg> 